<?xml version="1.0" standalone="no"?>
<!DOCTYPE svg PUBLIC "-//W3C//DTD SVG 20010904//EN"
 "http://www.w3.org/TR/2001/REC-SVG-20010904/DTD/svg10.dtd">
<svg version="1.0" xmlns="http://www.w3.org/2000/svg"
 width="48.000000pt" height="48.000000pt" viewBox="0 0 48.000000 48.000000"
 preserveAspectRatio="xMidYMid meet">

<g transform="translate(0.000000,48.000000) scale(0.100000,-0.100000)"
fill="#000000" stroke="none">
<path d="M0 240 l0 -240 240 0 240 0 0 240 0 240 -240 0 -240 0 0 -240z m90
65 c0 -33 37 -36 42 -3 2 12 9 23 16 26 9 3 12 -13 12 -57 0 -48 -3 -61 -15
-61 -9 0 -15 9 -15 25 0 18 -5 25 -20 25 -15 0 -20 -7 -20 -25 0 -16 -6 -25
-15 -25 -12 0 -15 13 -15 60 0 47 3 60 15 60 9 0 15 -9 15 -25z m170 10 c0 -9
-9 -15 -25 -15 -31 0 -33 -17 -2 -22 27 -4 26 -22 -3 -26 -12 -2 -20 -11 -20
-23 0 -10 -7 -19 -15 -19 -12 0 -15 13 -15 60 l0 60 40 0 c29 0 40 -4 40 -15z
m100 -82 c0 -18 -10 -16 -36 8 l-21 20 2 -25 c2 -17 -2 -26 -11 -26 -10 0 -14
15 -14 57 l0 57 40 -39 c22 -21 40 -45 40 -52z m-22 -82 c-15 -5 -21 7 -13 26
7 17 8 17 15 -2 4 -11 3 -22 -2 -24z m74 7 c-15 -15 -26 -4 -18 18 5 13 9 15
18 6 9 -9 9 -15 0 -24z m-322 7 c0 -6 -7 -12 -15 -12 -8 0 -15 6 -15 12 0 6 7
12 15 12 8 0 15 -6 15 -12z m30 6 c0 -6 -4 -13 -10 -16 -5 -3 -10 1 -10 9 0 9
5 16 10 16 6 0 10 -4 10 -9z m70 -8 c0 -7 -7 -13 -15 -13 -8 0 -15 6 -15 13 0
8 7 14 15 14 8 0 15 -6 15 -14z m40 4 c0 -8 -6 -14 -14 -14 -8 0 -12 6 -9 14
7 17 23 17 23 0z m40 0 c0 -8 -7 -14 -15 -14 -8 0 -15 6 -15 14 0 7 7 13 15
13 8 0 15 -6 15 -13z m33 0 c3 -8 -1 -14 -9 -14 -8 0 -14 6 -14 14 0 7 4 13 9
13 5 0 11 -6 14 -13z m71 -2 c-4 -8 -8 -15 -10 -15 -2 0 -4 7 -4 15 0 8 4 15
10 15 5 0 7 -7 4 -15z"/>
</g>
</svg>
